<svg xmlns="http://www.w3.org/2000/svg" viewBox="0 0 900 300">
  <defs>
    <linearGradient id="bg" x1="0%" y1="0%" x2="100%" y2="100%">
      <stop offset="0%" stop-color="#0a0a0f"/>
      <stop offset="50%" stop-color="#0d0d1a"/>
      <stop offset="100%" stop-color="#0a0a0f"/>
    </linearGradient>
    <linearGradient id="glow" x1="0%" y1="0%" x2="0%" y2="100%">
      <stop offset="0%" stop-color="#00ff88" stop-opacity="1"/>
      <stop offset="100%" stop-color="#00cc66" stop-opacity="0.8"/>
    </linearGradient>
    <linearGradient id="titleGrad" x1="0%" y1="0%" x2="100%" y2="0%">
      <stop offset="0%" stop-color="#00ff88"/>
      <stop offset="50%" stop-color="#00ffcc"/>
      <stop offset="100%" stop-color="#00ff88"/>
    </linearGradient>
    <filter id="cellGlow">
      <feGaussianBlur stdDeviation="2" result="blur"/>
      <feMerge>
        <feMergeNode in="blur"/>
        <feMergeNode in="SourceGraphic"/>
      </feMerge>
    </filter>
    <filter id="textGlow">
      <feGaussianBlur stdDeviation="4" result="blur"/>
      <feMerge>
        <feMergeNode in="blur"/>
        <feMergeNode in="SourceGraphic"/>
      </feMerge>
    </filter>
    <filter id="softGlow">
      <feGaussianBlur stdDeviation="8" result="blur"/>
      <feMerge>
        <feMergeNode in="blur"/>
        <feMergeNode in="SourceGraphic"/>
      </feMerge>
    </filter>
  </defs>

  <!-- Background -->
  <rect width="900" height="300" fill="url(#bg)"/>

  <!-- Grid lines (subtle) -->
  <g stroke="#0f0f1a" stroke-width="0.5" opacity="0.5">
    <!-- Vertical -->
    <line x1="0" y1="0" x2="0" y2="300"/><line x1="10" y1="0" x2="10" y2="300"/>
    <line x1="20" y1="0" x2="20" y2="300"/><line x1="30" y1="0" x2="30" y2="300"/>
    <line x1="40" y1="0" x2="40" y2="300"/><line x1="50" y1="0" x2="50" y2="300"/>
    <line x1="60" y1="0" x2="60" y2="300"/><line x1="70" y1="0" x2="70" y2="300"/>
    <line x1="80" y1="0" x2="80" y2="300"/><line x1="90" y1="0" x2="90" y2="300"/>
    <line x1="100" y1="0" x2="100" y2="300"/><line x1="110" y1="0" x2="110" y2="300"/>
    <line x1="120" y1="0" x2="120" y2="300"/><line x1="130" y1="0" x2="130" y2="300"/>
    <line x1="140" y1="0" x2="140" y2="300"/><line x1="150" y1="0" x2="150" y2="300"/>
    <line x1="160" y1="0" x2="160" y2="300"/><line x1="170" y1="0" x2="170" y2="300"/>
    <line x1="180" y1="0" x2="180" y2="300"/><line x1="190" y1="0" x2="190" y2="300"/>
    <line x1="200" y1="0" x2="200" y2="300"/><line x1="210" y1="0" x2="210" y2="300"/>
    <line x1="220" y1="0" x2="220" y2="300"/><line x1="230" y1="0" x2="230" y2="300"/>
    <line x1="240" y1="0" x2="240" y2="300"/><line x1="250" y1="0" x2="250" y2="300"/>
    <line x1="260" y1="0" x2="260" y2="300"/><line x1="270" y1="0" x2="270" y2="300"/>
    <line x1="280" y1="0" x2="280" y2="300"/><line x1="290" y1="0" x2="290" y2="300"/>
    <line x1="300" y1="0" x2="300" y2="300"/>
    <line x1="600" y1="0" x2="600" y2="300"/><line x1="610" y1="0" x2="610" y2="300"/>
    <line x1="620" y1="0" x2="620" y2="300"/><line x1="630" y1="0" x2="630" y2="300"/>
    <line x1="640" y1="0" x2="640" y2="300"/><line x1="650" y1="0" x2="650" y2="300"/>
    <line x1="660" y1="0" x2="660" y2="300"/><line x1="670" y1="0" x2="670" y2="300"/>
    <line x1="680" y1="0" x2="680" y2="300"/><line x1="690" y1="0" x2="690" y2="300"/>
    <line x1="700" y1="0" x2="700" y2="300"/><line x1="710" y1="0" x2="710" y2="300"/>
    <line x1="720" y1="0" x2="720" y2="300"/><line x1="730" y1="0" x2="730" y2="300"/>
    <line x1="740" y1="0" x2="740" y2="300"/><line x1="750" y1="0" x2="750" y2="300"/>
    <line x1="760" y1="0" x2="760" y2="300"/><line x1="770" y1="0" x2="770" y2="300"/>
    <line x1="780" y1="0" x2="780" y2="300"/><line x1="790" y1="0" x2="790" y2="300"/>
    <line x1="800" y1="0" x2="800" y2="300"/><line x1="810" y1="0" x2="810" y2="300"/>
    <line x1="820" y1="0" x2="820" y2="300"/><line x1="830" y1="0" x2="830" y2="300"/>
    <line x1="840" y1="0" x2="840" y2="300"/><line x1="850" y1="0" x2="850" y2="300"/>
    <line x1="860" y1="0" x2="860" y2="300"/><line x1="870" y1="0" x2="870" y2="300"/>
    <line x1="880" y1="0" x2="880" y2="300"/><line x1="890" y1="0" x2="890" y2="300"/>
    <!-- Horizontal -->
    <line x1="0" y1="0" x2="900" y2="0"/><line x1="0" y1="10" x2="900" y2="10"/>
    <line x1="0" y1="20" x2="900" y2="20"/><line x1="0" y1="30" x2="900" y2="30"/>
    <line x1="0" y1="40" x2="900" y2="40"/><line x1="0" y1="50" x2="900" y2="50"/>
    <line x1="0" y1="60" x2="900" y2="60"/><line x1="0" y1="70" x2="900" y2="70"/>
    <line x1="0" y1="80" x2="900" y2="80"/><line x1="0" y1="90" x2="900" y2="90"/>
    <line x1="0" y1="100" x2="900" y2="100"/><line x1="0" y1="110" x2="900" y2="110"/>
    <line x1="0" y1="120" x2="900" y2="120"/><line x1="0" y1="130" x2="900" y2="130"/>
    <line x1="0" y1="140" x2="900" y2="140"/><line x1="0" y1="150" x2="900" y2="150"/>
    <line x1="0" y1="160" x2="900" y2="160"/><line x1="0" y1="170" x2="900" y2="170"/>
    <line x1="0" y1="180" x2="900" y2="180"/><line x1="0" y1="190" x2="900" y2="190"/>
    <line x1="0" y1="200" x2="900" y2="200"/><line x1="0" y1="210" x2="900" y2="210"/>
    <line x1="0" y1="220" x2="900" y2="220"/><line x1="0" y1="230" x2="900" y2="230"/>
    <line x1="0" y1="240" x2="900" y2="240"/><line x1="0" y1="250" x2="900" y2="250"/>
    <line x1="0" y1="260" x2="900" y2="260"/><line x1="0" y1="270" x2="900" y2="270"/>
    <line x1="0" y1="280" x2="900" y2="280"/><line x1="0" y1="290" x2="900" y2="290"/>
  </g>

  <!-- LEFT SIDE: Alive cells forming patterns (Glider + Pulsar fragments) -->
  <g filter="url(#cellGlow)" opacity="0.9">
    <!-- Glider (top-left) -->
    <rect x="31" y="21" width="8" height="8" rx="1" fill="#00ff88"/>
    <rect x="41" y="31" width="8" height="8" rx="1" fill="#00ff88"/>
    <rect x="21" y="41" width="8" height="8" rx="1" fill="#00ff88"/>
    <rect x="31" y="41" width="8" height="8" rx="1" fill="#00ff88"/>
    <rect x="41" y="41" width="8" height="8" rx="1" fill="#00ff88"/>
    
    <!-- R-pentomino fragment -->
    <rect x="81" y="71" width="8" height="8" rx="1" fill="#00ff88"/>
    <rect x="91" y="71" width="8" height="8" rx="1" fill="#00ff88"/>
    <rect x="71" y="81" width="8" height="8" rx="1" fill="#00ff88"/>
    <rect x="81" y="81" width="8" height="8" rx="1" fill="#00ff88"/>
    <rect x="81" y="91" width="8" height="8" rx="1" fill="#00ff88"/>

    <!-- Scattered alive cells (left) -->
    <rect x="141" y="31" width="8" height="8" rx="1" fill="#00ff88" opacity="0.7"/>
    <rect x="191" y="51" width="8" height="8" rx="1" fill="#00ff88" opacity="0.5"/>
    <rect x="21" y="131" width="8" height="8" rx="1" fill="#00ff88" opacity="0.6"/>
    <rect x="31" y="131" width="8" height="8" rx="1" fill="#00ff88" opacity="0.6"/>
    <rect x="111" y="121" width="8" height="8" rx="1" fill="#00ff88" opacity="0.4"/>
    <rect x="51" y="181" width="8" height="8" rx="1" fill="#00ff88" opacity="0.5"/>
    <rect x="61" y="191" width="8" height="8" rx="1" fill="#00ff88" opacity="0.5"/>
    <rect x="171" y="161" width="8" height="8" rx="1" fill="#00ff88" opacity="0.3"/>
    <rect x="201" y="101" width="8" height="8" rx="1" fill="#00ff88" opacity="0.3"/>
    <rect x="231" y="191" width="8" height="8" rx="1" fill="#00ff88" opacity="0.4"/>

    <!-- Newborn cells (brighter) -->
    <rect x="151" y="91" width="8" height="8" rx="1" fill="#88ffcc" opacity="0.8"/>
    <rect x="121" y="181" width="8" height="8" rx="1" fill="#88ffcc" opacity="0.7"/>
    
    <!-- Dying cells (dimmer) -->
    <rect x="241" y="41" width="8" height="8" rx="1" fill="#004422" opacity="0.5"/>
    <rect x="181" y="141" width="8" height="8" rx="1" fill="#004422" opacity="0.4"/>
    <rect x="91" y="221" width="8" height="8" rx="1" fill="#004422" opacity="0.3"/>
  </g>

  <!-- RIGHT SIDE: More patterns (LWSS + scattered) -->
  <g filter="url(#cellGlow)" opacity="0.9">
    <!-- LWSS spaceship -->
    <rect x="651" y="31" width="8" height="8" rx="1" fill="#00ff88"/>
    <rect x="681" y="31" width="8" height="8" rx="1" fill="#00ff88"/>
    <rect x="641" y="41" width="8" height="8" rx="1" fill="#00ff88"/>
    <rect x="641" y="51" width="8" height="8" rx="1" fill="#00ff88"/>
    <rect x="681" y="51" width="8" height="8" rx="1" fill="#00ff88"/>
    <rect x="641" y="61" width="8" height="8" rx="1" fill="#00ff88"/>
    <rect x="651" y="61" width="8" height="8" rx="1" fill="#00ff88"/>
    <rect x="661" y="61" width="8" height="8" rx="1" fill="#00ff88"/>
    <rect x="671" y="61" width="8" height="8" rx="1" fill="#00ff88"/>

    <!-- Block (still life) -->
    <rect x="781" y="91" width="8" height="8" rx="1" fill="#00ff88"/>
    <rect x="791" y="91" width="8" height="8" rx="1" fill="#00ff88"/>
    <rect x="781" y="101" width="8" height="8" rx="1" fill="#00ff88"/>
    <rect x="791" y="101" width="8" height="8" rx="1" fill="#00ff88"/>

    <!-- Blinker (oscillator) -->
    <rect x="711" y="151" width="8" height="8" rx="1" fill="#00ff88"/>
    <rect x="721" y="151" width="8" height="8" rx="1" fill="#00ff88"/>
    <rect x="731" y="151" width="8" height="8" rx="1" fill="#00ff88"/>

    <!-- Scattered cells (right) -->
    <rect x="621" y="121" width="8" height="8" rx="1" fill="#00ff88" opacity="0.5"/>
    <rect x="751" y="51" width="8" height="8" rx="1" fill="#00ff88" opacity="0.4"/>
    <rect x="831" y="181" width="8" height="8" rx="1" fill="#00ff88" opacity="0.5"/>
    <rect x="841" y="191" width="8" height="8" rx="1" fill="#00ff88" opacity="0.5"/>
    <rect x="671" y="201" width="8" height="8" rx="1" fill="#00ff88" opacity="0.3"/>
    <rect x="761" y="231" width="8" height="8" rx="1" fill="#00ff88" opacity="0.4"/>
    <rect x="851" y="51" width="8" height="8" rx="1" fill="#00ff88" opacity="0.3"/>
    <rect x="871" y="261" width="8" height="8" rx="1" fill="#88ffcc" opacity="0.6"/>
    <rect x="631" y="251" width="8" height="8" rx="1" fill="#004422" opacity="0.4"/>
    <rect x="701" y="261" width="8" height="8" rx="1" fill="#004422" opacity="0.3"/>
  </g>

  <!-- Bottom scattered cells (across full width) -->
  <g filter="url(#cellGlow)" opacity="0.6">
    <rect x="311" y="261" width="8" height="8" rx="1" fill="#00ff88" opacity="0.3"/>
    <rect x="401" y="271" width="8" height="8" rx="1" fill="#00ff88" opacity="0.2"/>
    <rect x="501" y="261" width="8" height="8" rx="1" fill="#00ff88" opacity="0.25"/>
    <rect x="351" y="231" width="8" height="8" rx="1" fill="#00ff88" opacity="0.2"/>
    <rect x="551" y="241" width="8" height="8" rx="1" fill="#00ff88" opacity="0.2"/>
    <rect x="271" y="251" width="8" height="8" rx="1" fill="#88ffcc" opacity="0.3"/>
  </g>

  <!-- Central glow background for text -->
  <ellipse cx="450" cy="130" rx="260" ry="90" fill="#00ff88" opacity="0.03" filter="url(#softGlow)"/>

  <!-- Title -->
  <text x="450" y="108" text-anchor="middle" font-family="'Courier New', 'Lucida Console', monospace" font-size="48" font-weight="bold" fill="url(#titleGrad)" filter="url(#textGlow)">CONWAY'S LIFE</text>

  <!-- Subtitle -->
  <text x="450" y="145" text-anchor="middle" font-family="'Courier New', monospace" font-size="16" fill="#00ccff" opacity="0.9">ESP8266 + ILI9341 Touchscreen</text>

  <!-- Tagline -->
  <text x="450" y="175" text-anchor="middle" font-family="'Courier New', monospace" font-size="12" fill="#666">WebSocket &#x2022; OTA Updates &#x2022; RLE Patterns &#x2022; 20 Themes &#x2022; Captive Portal</text>

  <!-- GitHub reference -->
  <text x="450" y="210" text-anchor="middle" font-family="'Courier New', monospace" font-size="13" fill="#00ff88" opacity="0.6">github.com/wencescarlos/conways_life</text>

  <!-- Bottom border glow -->
  <rect x="0" y="296" width="900" height="4" fill="#00ff88" opacity="0.15"/>
  <rect x="200" y="297" width="500" height="3" fill="#00ff88" opacity="0.3" rx="1"/>

  <!-- Top border glow -->
  <rect x="0" y="0" width="900" height="2" fill="#00ff88" opacity="0.1"/>
</svg>
